<svg class="main-svg" xmlns="http://www.w3.org/2000/svg" xmlns:xlink="http://www.w3.org/1999/xlink" width="2100" height="1500" style="" viewBox="0 0 700 500"><rect x="0" y="0" width="700" height="500" style="fill: rgb(255, 255, 255); fill-opacity: 1;"/><defs id="defs-6e3163"><g class="clips"><clipPath id="clip6e3163xyplot" class="plotclip"><rect width="540" height="320"/></clipPath><clipPath class="axesclip" id="clip6e3163x"><rect x="80" y="0" width="540" height="500"/></clipPath><clipPath class="axesclip" id="clip6e3163y"><rect x="0" y="100" width="700" height="320"/></clipPath><clipPath class="axesclip" id="clip6e3163xy"><rect x="80" y="100" width="540" height="320"/></clipPath></g><g class="gradients"/><g class="patterns"/></defs><g class="bglayer"/><g class="layer-below"><g class="imagelayer"/><g class="shapelayer"/></g><g class="cartesianlayer"><g class="subplot xy"><g class="layer-subplot"><g class="shapelayer"/><g class="imagelayer"/></g><g class="minor-gridlayer"><g class="x"/><g class="y"/></g><g class="gridlayer"><g class="x"><path class="xgrid crisp" transform="translate(216.71,0)" d="M0,100v320" style="stroke: rgb(235, 240, 248); stroke-opacity: 1; stroke-width: 1px;"/><path class="xgrid crisp" transform="translate(353.42,0)" d="M0,100v320" style="stroke: rgb(235, 240, 248); stroke-opacity: 1; stroke-width: 1px;"/><path class="xgrid crisp" transform="translate(490.13,0)" d="M0,100v320" style="stroke: rgb(235, 240, 248); stroke-opacity: 1; stroke-width: 1px;"/></g><g class="y"><path class="ygrid crisp" transform="translate(0,418.56)" d="M80,0h540" style="stroke: rgb(235, 240, 248); stroke-opacity: 1; stroke-width: 1px;"/><path class="ygrid crisp" transform="translate(0,356.76)" d="M80,0h540" style="stroke: rgb(235, 240, 248); stroke-opacity: 1; stroke-width: 1px;"/><path class="ygrid crisp" transform="translate(0,294.97)" d="M80,0h540" style="stroke: rgb(235, 240, 248); stroke-opacity: 1; stroke-width: 1px;"/><path class="ygrid crisp" transform="translate(0,233.17)" d="M80,0h540" style="stroke: rgb(235, 240, 248); stroke-opacity: 1; stroke-width: 1px;"/><path class="ygrid crisp" transform="translate(0,171.37)" d="M80,0h540" style="stroke: rgb(235, 240, 248); stroke-opacity: 1; stroke-width: 1px;"/><path class="ygrid crisp" transform="translate(0,109.57)" d="M80,0h540" style="stroke: rgb(235, 240, 248); stroke-opacity: 1; stroke-width: 1px;"/></g></g><g class="zerolinelayer"><path class="xzl zl crisp" transform="translate(80,0)" d="M0,100v320" style="stroke: rgb(235, 240, 248); stroke-opacity: 1; stroke-width: 2px;"/></g><g class="layer-between"><g class="shapelayer"/><g class="imagelayer"/></g><path class="xlines-below"/><path class="ylines-below"/><g class="overlines-below"/><g class="xaxislayer-below"/><g class="yaxislayer-below"/><g class="overaxes-below"/><g class="overplot"><g class="xy" transform="translate(80,100)" clip-path="url(#clip6e3163xyplot)"><g class="scatterlayer mlayer"><g class="trace scatter tracea98fee" style="stroke-miterlimit: 2; opacity: 1;"><g class="fills"/><g class="errorbars"/><g class="lines"><path class="js-line" d="M0,289.62L2.73,286.53L4.1,283.56L5.47,277.79L6.84,268.05L8.2,261.2L9.57,229.21L10.94,207.12L12.3,210.97L15.04,247.38L16.41,267.48L19.14,280.65L20.51,282.86L21.87,272.3L23.24,250.06L27.34,131.23L28.71,112.9L30.08,110.04L31.44,137.1L34.18,71.58L35.54,71.92L36.91,78.93L38.28,111.72L41.01,198.68L42.38,171.08L45.11,133.41L46.48,137.11L49.22,198.19L50.58,216.87L51.95,225.76L53.32,229.19L54.68,220.68L56.05,205.6L57.42,179.62L58.78,128.14L61.52,85.03L62.89,81.06L64.25,108.14L65.62,66.95L66.99,46.67L68.35,48.64L69.72,53.85L71.09,87.35L73.82,184.79L75.19,159.5L77.92,108.04L79.29,111.78L82.03,178L83.39,195.3L86.13,210.39L87.49,204.39L90.23,166.24L91.59,111.54L94.33,66.95L95.7,64.29L97.06,90.09L98.43,48.61L99.8,33.02L101.16,38.59L102.53,47.95L103.9,84.56L106.63,177.08L108,151.99L110.73,104.32L112.1,118.17L114.84,175.76L116.2,193.44L118.94,209.4L120.3,203.55L121.67,190.6L123.04,167.11L125.77,90.14L127.14,70.38L128.51,68.38L129.87,96.42L132.61,35.64L133.97,39.79L135.34,51.67L136.71,92.17L139.44,193.68L140.81,165.86L143.54,130.97L144.91,126.05L147.65,188.15L149.01,206.7L151.75,219.39L153.11,213.75L154.48,198.84L155.85,173.9L158.58,99.71L159.95,80.91L161.32,79.83L162.68,108.7L164.05,70.59L165.42,54L166.78,62.95L168.15,93.8L172.25,208.33L173.62,183.12L174.99,167.53L176.35,160.67L177.72,149.25L179.09,231.27L183.19,272.33L184.56,280.26L187.29,289.54L188.66,304L191.39,284.31L192.76,270.18L194.13,260.1L195.49,261.98L196.86,256.26L198.23,245.15L199.59,240.41L200.96,240.43L205.06,231.94L206.43,197.05L207.8,161.82L209.16,155.05L210.53,163.6L211.9,186.39L214.63,221.43L216,229.39L217.37,232.71L218.73,223.38L221.47,180.5L222.84,125.98L225.57,78.65L226.94,74.05L228.3,97.02L229.67,56.28L231.04,40.49L232.41,43.93L233.77,51.32L235.14,84.56L237.87,177.96L239.24,151.8L241.97,101.87L243.34,111.42L246.08,167.95L247.44,186.12L250.18,202.1L251.54,197.59L252.91,183.42L254.28,160.76L257.01,85.13L258.38,67.32L259.75,64.82L261.11,88.28L262.48,48.24L263.85,69.65L265.22,62.93L266.58,52.45L270.68,177.91L272.05,147.34L274.78,99.37L276.15,108.88L278.89,165.96L280.25,182.53L282.99,197.48L284.35,192.13L287.09,153.86L288.46,102.54L291.19,55.31L292.56,51.29L293.92,76.69L295.29,37.43L296.66,22.09L298.03,26.56L299.39,37.38L300.76,73.04L303.49,163.56L304.86,137.01L307.59,81.24L308.96,87.67L313.06,164.49L314.43,173.82L315.8,180.56L317.16,176.73L318.53,164.54L319.9,143.27L322.63,64.71L324,47.67L325.37,45.98L326.73,72.38L328.1,31.26L329.47,16L330.84,22.42L332.2,32.99L333.57,65.05L334.94,118.31L336.3,163.02L337.67,137.19L340.41,88.9L341.77,89.64L344.51,144.84L345.87,161.81L348.61,180L349.97,178.44L352.71,141.93L354.08,89.94L356.81,46.41L358.18,45.81L359.54,72.78L360.91,35.49L362.28,19.35L363.65,24.53L365.01,38.81L366.38,71.67L369.11,168.94L370.48,143.07L373.22,100.32L374.58,104.1L378.68,163.79L380.05,174.99L382.78,188.37L384.15,188.78L385.52,197.96L386.89,178.14L388.25,162.56L389.62,155.62L390.99,152.52L392.35,167.69L393.72,163.45L395.09,162.77L397.82,187.33L399.19,202.66L400.56,211.35L401.92,207.44L403.29,180.27L404.66,172.19L407.39,194.45L408.76,213.17L412.86,253.95L414.23,260.72L415.59,266.52L416.96,268.58L418.33,284.6L419.7,279.85L422.43,260.66L423.8,248.63L425.16,251.84L426.53,245.29L427.9,236.59L429.27,232.74L430.63,233.45L432,233.25L433.37,232.02L434.73,229.39L437.47,161.24L438.84,158.82L440.2,169.81L441.57,191.1L444.3,222.27L445.67,229.06L447.04,231.83L448.41,223.36L451.14,181.3L452.51,132.47L455.24,71.63L456.61,66L457.97,90.42L459.34,52.83L460.71,34.91L462.08,35.94L463.44,45.7L464.81,84.33L467.54,177.91L468.91,151.74L471.65,121.08L473.01,122.46L475.75,180.51L477.11,199.1L479.85,212.87L481.22,207.34L483.95,166.02L485.32,117.93L488.05,74.32L489.42,69.83L490.78,97.39L492.15,56.27L493.52,33.99L494.89,35.27L496.25,41.28L497.62,75L500.35,169.2L501.72,136.61L504.46,88.69L505.82,96L508.56,158.51L509.92,175.79L512.66,191.91L514.03,186.77L516.76,148.41L518.13,101.86L520.86,62.14L522.23,60.18L523.59,92.57L524.96,54.41L526.33,34.99L527.7,40.05L529.06,52.66L530.43,90.34L533.16,180.14L534.53,152.88L537.27,124.79L538.63,136.55L540,165.84" style="vector-effect: none; fill: none; stroke: rgb(0, 0, 255); stroke-opacity: 1; stroke-width: 2px; opacity: 1;"/></g><g class="points"/><g class="text"/></g><g class="trace scatter tracea21bc6" style="stroke-miterlimit: 2; opacity: 1;"><g class="fills"/><g class="errorbars"/><g class="lines"><path class="js-line" d="M0,285.67L1.37,291.22L2.73,287.17L5.47,279.82L6.84,272.38L9.57,255.01L10.94,217.14L12.3,198.69L13.67,211.67L16.41,251.05L17.77,272.98L19.14,281.58L20.51,283.75L21.87,280.1L23.24,256.09L25.97,185.84L27.34,141.29L28.71,130.84L30.08,114.12L31.44,98.32L32.81,108.36L34.18,68.68L35.54,53.47L38.28,83.82L39.65,133.93L41.01,184.72L42.38,197.58L43.75,137.94L45.11,133.86L46.48,135.81L47.85,152.91L49.22,202.96L50.58,207.65L53.32,223.93L54.68,225.39L58.78,154.91L60.15,99.34L61.52,105.46L62.89,87.87L64.25,68.97L65.62,85.31L66.99,44.92L68.35,42.58L71.09,70.87L72.46,117.05L73.82,173.21L75.19,181.86L76.56,120.58L77.92,104.69L80.66,134.52L82.03,181.24L84.76,196.11L86.13,202.6L87.49,208.01L88.86,191.46L91.59,146.53L92.96,84.24L94.33,94.43L95.7,74.61L97.06,58.09L98.43,72.76L99.8,32.38L101.16,36.38L103.9,69.95L105.27,116.84L106.63,165.43L108,170.03L109.37,110.32L110.73,109.69L112.1,113.48L113.47,147.26L114.84,174.28L116.2,184.52L118.94,201.85L120.3,206.97L123.04,171.73L124.41,146.57L125.77,90.36L127.14,96.22L129.87,63.36L131.24,80.87L132.61,38L133.97,38.96L136.71,73.46L138.08,124.67L139.44,177.12L140.81,181.38L142.18,119.65L143.54,129.42L144.91,135.64L146.28,130.78L147.65,190.93L149.01,200.04L151.75,212.84L153.11,216.94L155.85,178.58L157.22,151.5L158.58,95.86L159.95,104.32L162.68,70.49L164.05,90L165.42,50.26L166.78,51.8L168.15,73.64L169.52,115.38L172.25,178.96L173.62,200.28L174.99,142.68L176.35,151.35L177.72,159.74L179.09,140.32L180.46,286.54L181.82,235.82L184.56,266.87L185.92,272.2L188.66,268.63L190.03,288.92L191.39,272.56L192.76,270.42L194.13,255.95L195.49,249.75L196.86,258.83L198.23,253.76L199.59,241.12L200.96,238.16L202.33,240.43L203.7,236.92L206.43,231.78L207.8,190.39L209.16,155.79L210.53,156.74L211.9,165.97L213.27,186.86L216,222.2L217.37,230.07L218.73,231.17L220.1,210.33L222.84,159.62L224.2,99.8L225.57,101.43L226.94,79.84L228.3,60.45L229.67,70.79L231.04,34.03L232.41,35.23L235.14,68.45L236.51,114.32L237.87,167.8L239.24,174.56L240.61,111.49L241.97,104.52L243.34,114.67L244.71,138.77L246.08,169.39L247.44,179.55L248.81,190.56L250.18,195.12L251.54,200.54L252.91,186.87L255.65,142.99L257.01,87.47L258.38,93.82L259.75,77.64L261.11,62.63L262.48,76.06L263.85,35.04L265.22,74.71L266.58,69.75L267.95,72.22L270.68,169.63L272.05,171.97L273.42,105.36L274.78,105.34L276.15,113.93L277.52,137.51L278.89,170.88L280.25,177.53L281.62,186.96L282.99,190.33L284.35,196.77L285.72,181.51L288.46,139.08L289.82,82.53L291.19,88.11L292.56,66.84L293.92,51.2L295.29,65.47L296.66,26.17L298.03,31.27L300.76,64.59L302.13,106.68L303.49,152.24L304.86,159.04L306.23,93.58L307.59,93.61L308.96,99.95L310.33,116.88L311.7,148.88L313.06,162.02L314.43,171.63L315.8,174.69L317.16,180.54L318.53,168.7L321.27,131L322.63,71.08L324,85.27L325.37,65.16L326.73,52.28L328.1,69.21L329.47,25.36L330.84,32.75L333.57,63.78L334.94,99.28L336.3,150.26L337.67,158.34L339.04,91.15L340.41,98.76L343.14,111.13L344.51,150.23L348.61,176.82L349.97,180.04L351.34,172.38L352.71,146.05L354.08,132.6L355.44,72.81L356.81,84.45L358.18,64.39L359.54,52.69L360.91,69.57L362.28,29.18L363.65,35.23L366.38,70.56L367.75,104.61L369.11,150.74L370.48,164.41L371.85,95.87L373.22,109.39L374.58,111.18L375.95,124.02L378.68,160.21L380.05,173.1L382.78,186.02L384.15,186.66L385.52,182.76L386.89,199.61L388.25,157.18L389.62,153.69L390.99,158.77L392.35,158.94L393.72,180.41L395.09,167.12L396.46,166.21L397.82,180.94L400.56,210.68L401.92,213.35L403.29,199.91L404.66,158.98L406.03,169.15L407.39,196.1L408.76,202.33L410.13,222.9L412.86,248.42L414.23,255.15L415.59,257.2L416.96,257.87L418.33,255.18L419.7,282.45L423.8,249.2L425.16,238.91L426.53,249.39L427.9,242.9L429.27,233.55L430.63,231.31L432,233.88L433.37,234.1L434.73,232.63L436.1,229.56L438.84,155.78L440.2,161.39L441.57,172.91L442.94,192.95L445.67,223.74L447.04,230.19L448.41,229.82L449.77,210.32L452.51,163.78L453.87,111.14L456.61,74.44L457.97,53.98L459.34,63.29L460.71,29.88L462.08,28.59L463.44,43.68L464.81,63.75L466.18,115.16L467.54,165.72L468.91,171.59L470.28,109.48L471.65,127.9L473.01,125.78L474.38,133.76L475.75,185.45L477.11,187.68L478.48,200.79L479.85,205.98L481.22,210.16L482.58,194.74L483.95,162.24L485.32,150.72L486.68,96.15L488.05,101.01L490.78,63.03L492.15,80.96L493.52,39.34L494.89,37.57L497.62,63.29L498.99,106.82L500.35,157.39L501.72,171.04L503.09,92.58L504.46,99.4L505.82,108.07L507.19,122.02L508.56,163.75L509.92,170.51L512.66,184.83L514.03,190.68L515.39,175.7L516.76,151.39L518.13,135.41L519.49,85.56L520.86,92.8L522.23,74.32L523.59,61.96L524.96,86.14L526.33,42.82L527.7,46.56L530.43,79.64L531.8,123.39L533.16,167.82L534.53,170.18L535.9,110.43L537.27,135.74L538.63,125.27L540,154.73" style="vector-effect: none; fill: none; stroke: rgb(255, 0, 0); stroke-opacity: 1; stroke-dasharray: 9px, 9px; stroke-width: 2px; opacity: 1;"/></g><g class="points"/><g class="text"/></g></g></g></g><path class="xlines-above crisp" d="M0,0" style="fill: none;"/><path class="ylines-above crisp" d="M0,0" style="fill: none;"/><g class="overlines-above"/><g class="xaxislayer-above"><g class="xtick"><text text-anchor="middle" x="0" y="433" transform="translate(80,0)" style="font-family: 'Open Sans', verdana, arial, sans-serif; font-size: 12px; fill: rgb(42, 63, 95); fill-opacity: 1; white-space: pre; opacity: 1;">0</text></g><g class="xtick"><text text-anchor="middle" x="0" y="433" style="font-family: 'Open Sans', verdana, arial, sans-serif; font-size: 12px; fill: rgb(42, 63, 95); fill-opacity: 1; white-space: pre; opacity: 1;" transform="translate(216.71,0)">100</text></g><g class="xtick"><text text-anchor="middle" x="0" y="433" style="font-family: 'Open Sans', verdana, arial, sans-serif; font-size: 12px; fill: rgb(42, 63, 95); fill-opacity: 1; white-space: pre; opacity: 1;" transform="translate(353.42,0)">200</text></g><g class="xtick"><text text-anchor="middle" x="0" y="433" style="font-family: 'Open Sans', verdana, arial, sans-serif; font-size: 12px; fill: rgb(42, 63, 95); fill-opacity: 1; white-space: pre; opacity: 1;" transform="translate(490.13,0)">300</text></g></g><g class="yaxislayer-above"><g class="ytick"><text text-anchor="end" x="79" y="4.199999999999999" transform="translate(0,418.56)" style="font-family: 'Open Sans', verdana, arial, sans-serif; font-size: 12px; fill: rgb(42, 63, 95); fill-opacity: 1; white-space: pre; opacity: 1;">8k</text></g><g class="ytick"><text text-anchor="end" x="79" y="4.199999999999999" style="font-family: 'Open Sans', verdana, arial, sans-serif; font-size: 12px; fill: rgb(42, 63, 95); fill-opacity: 1; white-space: pre; opacity: 1;" transform="translate(0,356.76)">10k</text></g><g class="ytick"><text text-anchor="end" x="79" y="4.199999999999999" style="font-family: 'Open Sans', verdana, arial, sans-serif; font-size: 12px; fill: rgb(42, 63, 95); fill-opacity: 1; white-space: pre; opacity: 1;" transform="translate(0,294.97)">12k</text></g><g class="ytick"><text text-anchor="end" x="79" y="4.199999999999999" style="font-family: 'Open Sans', verdana, arial, sans-serif; font-size: 12px; fill: rgb(42, 63, 95); fill-opacity: 1; white-space: pre; opacity: 1;" transform="translate(0,233.17)">14k</text></g><g class="ytick"><text text-anchor="end" x="79" y="4.199999999999999" style="font-family: 'Open Sans', verdana, arial, sans-serif; font-size: 12px; fill: rgb(42, 63, 95); fill-opacity: 1; white-space: pre; opacity: 1;" transform="translate(0,171.37)">16k</text></g><g class="ytick"><text text-anchor="end" x="79" y="4.199999999999999" style="font-family: 'Open Sans', verdana, arial, sans-serif; font-size: 12px; fill: rgb(42, 63, 95); fill-opacity: 1; white-space: pre; opacity: 1;" transform="translate(0,109.57)">18k</text></g></g><g class="overaxes-above"/></g></g><g class="polarlayer"/><g class="smithlayer"/><g class="ternarylayer"/><g class="geolayer"/><g class="funnelarealayer"/><g class="pielayer"/><g class="iciclelayer"/><g class="treemaplayer"/><g class="sunburstlayer"/><g class="glimages"/><defs id="topdefs-6e3163"><g class="clips"/><clipPath id="legend6e3163"><rect width="114" height="48" x="0" y="0"/></clipPath></defs><g class="layer-above"><g class="imagelayer"/><g class="shapelayer"/></g><g class="infolayer"><g class="legend" pointer-events="all" transform="translate(80,100)"><rect class="bg" shape-rendering="crispEdges" width="114" height="48" x="0" y="0" style="stroke: rgb(68, 68, 68); stroke-opacity: 1; fill: rgb(255, 255, 255); fill-opacity: 1; stroke-width: 0px;"/><g class="scrollbox" transform="" clip-path="url(#legend6e3163)"><g class="groups"><g class="traces" transform="translate(0,14.5)" style="opacity: 1;"><text class="legendtext" text-anchor="start" x="40" y="4.680000000000001" style="font-family: 'Open Sans', verdana, arial, sans-serif; font-size: 12px; fill: rgb(42, 63, 95); fill-opacity: 1; white-space: pre;">Dados Reais</text><g class="layers" style="opacity: 1;"><g class="legendfill"/><g class="legendlines"><path class="js-line" d="M5,0h30" style="fill: none; stroke: rgb(0, 0, 255); stroke-opacity: 1; stroke-width: 2px;"/></g><g class="legendsymbols"><g class="legendpoints"/></g></g><rect class="legendtoggle" x="0" y="-9.5" width="108.703125" height="19" style="fill: rgb(0, 0, 0); fill-opacity: 0;"/></g><g class="traces" transform="translate(0,33.5)" style="opacity: 1;"><text class="legendtext" text-anchor="start" x="40" y="4.680000000000001" style="font-family: 'Open Sans', verdana, arial, sans-serif; font-size: 12px; fill: rgb(42, 63, 95); fill-opacity: 1; white-space: pre;">Previsão</text><g class="layers" style="opacity: 1;"><g class="legendfill"/><g class="legendlines"><path class="js-line" d="M5,0h30" style="fill: none; stroke: rgb(255, 0, 0); stroke-opacity: 1; stroke-dasharray: 9px, 9px; stroke-width: 2px;"/></g><g class="legendsymbols"><g class="legendpoints"/></g></g><rect class="legendtoggle" x="0" y="-9.5" width="108.703125" height="19" style="fill: rgb(0, 0, 0); fill-opacity: 0;"/></g></g></g><rect class="scrollbar" rx="20" ry="3" width="0" height="0" x="0" y="0" style="fill: rgb(128, 139, 164); fill-opacity: 1;"/></g><g class="g-gtitle"><text class="gtitle" x="35" y="50" text-anchor="start" dy="0em" style="opacity: 1; font-family: 'Open Sans', verdana, arial, sans-serif; font-size: 17px; fill: rgb(42, 63, 95); fill-opacity: 1; white-space: pre;">Previsão de Carga usando LSTM</text></g><g class="g-xtitle"><text class="xtitle" x="350" y="460.3" text-anchor="middle" style="opacity: 1; font-family: 'Open Sans', verdana, arial, sans-serif; font-size: 14px; fill: rgb(42, 63, 95); fill-opacity: 1; white-space: pre;">Tempo</text></g><g class="g-ytitle"><text class="ytitle" transform="rotate(-90,40.240625,260)" x="40.240625" y="260" text-anchor="middle" style="opacity: 1; font-family: 'Open Sans', verdana, arial, sans-serif; font-size: 14px; fill: rgb(42, 63, 95); fill-opacity: 1; white-space: pre;">Carga</text></g></g></svg>